<?xml version="1.0" standalone="no"?><!DOCTYPE svg PUBLIC "-//W3C//DTD SVG 1.1//EN" "http://www.w3.org/Graphics/SVG/1.1/DTD/svg11.dtd"><svg t="1616072618633" class="icon" viewBox="0 0 1026 1024" version="1.1" xmlns="http://www.w3.org/2000/svg" p-id="1907" xmlns:xlink="http://www.w3.org/1999/xlink" width="64.125" height="64"><defs><style type="text/css"></style></defs><path d="M766.464 354.816c-40.448-37.376-96.768-53.76-172.032-53.76h-43.008v422.4h43.008c75.264 0 131.584-18.944 172.032-51.2 37.888-34.816 56.32-88.576 56.32-158.72s-18.944-126.464-56.32-158.72z" fill="#d81e06" p-id="1908"></path><path d="M819.2 0H204.8C92.16 0 0 92.16 0 204.8v614.4c0 112.64 92.16 204.8 204.8 204.8h614.4c112.64 0 204.8-92.16 204.8-204.8V204.8c0-112.64-92.16-204.8-204.8-204.8zM390.144 596.992c0 70.144-21.504 123.904-61.952 158.72-40.448 34.816-104.96 51.2-188.416 51.2h-13.312v-86.016h10.752c29.696 0 53.76-2.56 72.704-8.192 18.944-5.632 37.888-13.312 51.2-24.064 10.752-8.192 18.944-21.504 24.064-34.816 5.632-16.384 8.192-43.008 8.192-83.456V209.92h96.768v387.072z m440.832 137.216c-56.32 48.64-139.776 75.264-247.296 75.264H457.216V212.48H583.68c107.52 0 190.976 24.064 247.296 75.264 56.32 48.64 86.016 126.464 86.016 223.232-2.56 96.768-32.256 174.592-86.016 223.232z" fill="#d81e06" p-id="1909"></path></svg>